<svg xmlns="http://www.w3.org/2000/svg" xmlns:xlink="http://www.w3.org/1999/xlink" width="500" zoomAndPan="magnify" viewBox="0 0 375 374.999991" height="500" preserveAspectRatio="xMidYMid meet" version="1.0"><defs><filter x="0%" y="0%" width="100%" height="100%" id="eda3da110e"><feColorMatrix values="0 0 0 0 1 0 0 0 0 1 0 0 0 0 1 0 0 0 1 0" color-interpolation-filters="sRGB"/></filter><g/><clipPath id="0044bab6c2"><path d="M 234.585938 217.808594 L 277.457031 217.808594 L 277.457031 260.679688 L 234.585938 260.679688 Z M 234.585938 217.808594 " clip-rule="nonzero"/></clipPath><clipPath id="7e5211da03"><path d="M 256.023438 217.808594 C 244.183594 217.808594 234.585938 227.40625 234.585938 239.246094 C 234.585938 251.082031 244.183594 260.679688 256.023438 260.679688 C 267.863281 260.679688 277.457031 251.082031 277.457031 239.246094 C 277.457031 227.40625 267.863281 217.808594 256.023438 217.808594 Z M 256.023438 217.808594 " clip-rule="nonzero"/></clipPath><clipPath id="20db33f128"><path d="M 73.941406 309.589844 L 92.050781 309.589844 L 92.050781 327.699219 L 73.941406 327.699219 Z M 73.941406 309.589844 " clip-rule="nonzero"/></clipPath><clipPath id="1922865fe0"><path d="M 82.996094 309.589844 C 77.996094 309.589844 73.941406 313.644531 73.941406 318.644531 C 73.941406 323.644531 77.996094 327.699219 82.996094 327.699219 C 87.996094 327.699219 92.050781 323.644531 92.050781 318.644531 C 92.050781 313.644531 87.996094 309.589844 82.996094 309.589844 Z M 82.996094 309.589844 " clip-rule="nonzero"/></clipPath><mask id="d0f9c5afd9"><g filter="url(#eda3da110e)"><rect x="-37.5" width="450" fill="#000000" y="-37.499999" height="449.999989" fill-opacity="0.45"/></g></mask><clipPath id="6d4b8d1c2b"><path d="M 0.480469 5 L 20 5 L 20 52 L 0.480469 52 Z M 0.480469 5 " clip-rule="nonzero"/></clipPath><clipPath id="23c14dc8fa"><path d="M 27 0.078125 L 67 0.078125 L 67 81 L 27 81 Z M 27 0.078125 " clip-rule="nonzero"/></clipPath><clipPath id="7e2f8a8438"><path d="M 63 21 L 88.320312 21 L 88.320312 45 L 63 45 Z M 63 21 " clip-rule="nonzero"/></clipPath><clipPath id="4c9735b9b0"><rect x="0" width="89" y="0" height="82"/></clipPath><mask id="34479133e3"><g filter="url(#eda3da110e)"><rect x="-37.5" width="450" fill="#000000" y="-37.499999" height="449.999989" fill-opacity="0.45"/></g></mask><clipPath id="b61c058d99"><path d="M 64 64 L 97 64 L 97 104 L 64 104 Z M 64 64 " clip-rule="nonzero"/></clipPath><clipPath id="92de46c0cd"><path d="M 75.449219 116.546875 L 0.6875 69.1875 L 44.4375 0.128906 L 119.199219 47.488281 Z M 75.449219 116.546875 " clip-rule="nonzero"/></clipPath><clipPath id="2b5822c13a"><path d="M 75.449219 116.546875 L 0.6875 69.1875 L 44.4375 0.128906 L 119.199219 47.488281 Z M 75.449219 116.546875 " clip-rule="nonzero"/></clipPath><clipPath id="c94592205a"><path d="M 71 50 L 86 50 L 86 86 L 71 86 Z M 71 50 " clip-rule="nonzero"/></clipPath><clipPath id="b011bfe811"><path d="M 75.449219 116.546875 L 0.6875 69.1875 L 44.4375 0.128906 L 119.199219 47.488281 Z M 75.449219 116.546875 " clip-rule="nonzero"/></clipPath><clipPath id="20ceb42940"><path d="M 75.449219 116.546875 L 0.6875 69.1875 L 44.4375 0.128906 L 119.199219 47.488281 Z M 75.449219 116.546875 " clip-rule="nonzero"/></clipPath><clipPath id="0a45ec51fe"><path d="M 62 41 L 74 41 L 74 76 L 62 76 Z M 62 41 " clip-rule="nonzero"/></clipPath><clipPath id="07803e3b02"><path d="M 75.449219 116.546875 L 0.6875 69.1875 L 44.4375 0.128906 L 119.199219 47.488281 Z M 75.449219 116.546875 " clip-rule="nonzero"/></clipPath><clipPath id="9f0d0dde65"><path d="M 75.449219 116.546875 L 0.6875 69.1875 L 44.4375 0.128906 L 119.199219 47.488281 Z M 75.449219 116.546875 " clip-rule="nonzero"/></clipPath><clipPath id="3080147278"><path d="M 30 15 L 72 15 L 72 101 L 30 101 Z M 30 15 " clip-rule="nonzero"/></clipPath><clipPath id="e4562d11ea"><path d="M 75.449219 116.546875 L 0.6875 69.1875 L 44.4375 0.128906 L 119.199219 47.488281 Z M 75.449219 116.546875 " clip-rule="nonzero"/></clipPath><clipPath id="247763a352"><path d="M 75.449219 116.546875 L 0.6875 69.1875 L 44.4375 0.128906 L 119.199219 47.488281 Z M 75.449219 116.546875 " clip-rule="nonzero"/></clipPath><clipPath id="7c30450292"><path d="M 20 35 L 43 35 L 43 65 L 20 65 Z M 20 35 " clip-rule="nonzero"/></clipPath><clipPath id="1ac87713fd"><path d="M 75.449219 116.546875 L 0.6875 69.1875 L 44.4375 0.128906 L 119.199219 47.488281 Z M 75.449219 116.546875 " clip-rule="nonzero"/></clipPath><clipPath id="38bd654770"><path d="M 75.449219 116.546875 L 0.6875 69.1875 L 44.4375 0.128906 L 119.199219 47.488281 Z M 75.449219 116.546875 " clip-rule="nonzero"/></clipPath><clipPath id="02165f18a4"><path d="M 60 24 L 71 24 L 71 29 L 60 29 Z M 60 24 " clip-rule="nonzero"/></clipPath><clipPath id="13dfdafdf9"><path d="M 75.449219 116.546875 L 0.6875 69.1875 L 44.4375 0.128906 L 119.199219 47.488281 Z M 75.449219 116.546875 " clip-rule="nonzero"/></clipPath><clipPath id="523bd836ce"><path d="M 75.449219 116.546875 L 0.6875 69.1875 L 44.4375 0.128906 L 119.199219 47.488281 Z M 75.449219 116.546875 " clip-rule="nonzero"/></clipPath><clipPath id="211f986360"><rect x="0" width="119" y="0" height="116"/></clipPath><clipPath id="5391fe2745"><path d="M 15.421875 251.070312 L 92.050781 251.070312 L 92.050781 327.699219 L 15.421875 327.699219 Z M 15.421875 251.070312 " clip-rule="nonzero"/></clipPath><clipPath id="19066ebd57"><path d="M 53.734375 251.070312 C 32.574219 251.070312 15.421875 268.222656 15.421875 289.382812 C 15.421875 310.546875 32.574219 327.699219 53.734375 327.699219 C 74.894531 327.699219 92.050781 310.546875 92.050781 289.382812 C 92.050781 268.222656 74.894531 251.070312 53.734375 251.070312 Z M 53.734375 251.070312 " clip-rule="nonzero"/></clipPath></defs><rect x="-37.5" width="450" fill="#ffffff" y="-37.499999" height="449.999989" fill-opacity="1"/><rect x="-37.5" width="450" fill="#ffffff" y="-37.499999" height="449.999989" fill-opacity="1"/><g clip-path="url(#0044bab6c2)"><g clip-path="url(#7e5211da03)"><path fill="#ffffff" d="M 234.585938 217.808594 L 277.457031 217.808594 L 277.457031 260.679688 L 234.585938 260.679688 Z M 234.585938 217.808594 " fill-opacity="1" fill-rule="nonzero"/></g></g><g clip-path="url(#20db33f128)"><g clip-path="url(#1922865fe0)"><path fill="#ffffff" d="M 73.941406 309.589844 L 92.050781 309.589844 L 92.050781 327.699219 L 73.941406 327.699219 Z M 73.941406 309.589844 " fill-opacity="1" fill-rule="nonzero"/></g></g><g mask="url(#d0f9c5afd9)"><g transform="matrix(1, 0, 0, 1, 186, 136)"><g clip-path="url(#4c9735b9b0)"><g clip-path="url(#6d4b8d1c2b)"><path fill="#a6a6a6" d="M 15.53125 5.980469 C 11.21875 9.515625 5.792969 13.199219 2.886719 18.09375 C -0.117188 23.226562 0.464844 29.914062 1.238281 35.535156 C 1.917969 40.570312 3.175781 46.09375 7.390625 49.390625 C 10.929688 52.152344 16.015625 52.539062 19.40625 49.488281 C 20.617188 48.371094 18.875 46.726562 17.613281 47.695312 C 13.835938 50.746094 8.894531 47.644531 6.957031 44.058594 C 4.726562 39.992188 4.144531 34.902344 3.855469 30.347656 C 3.515625 25.457031 3.371094 20.707031 6.714844 16.734375 C 9.667969 13.199219 13.398438 10.292969 16.644531 7.09375 C 17.371094 6.367188 16.257812 5.351562 15.53125 5.980469 Z M 15.53125 5.980469 " fill-opacity="1" fill-rule="nonzero"/></g><path fill="#a6a6a6" d="M 11.996094 29.863281 C 15.917969 36.648438 14.515625 45.515625 20.523438 51.277344 C 24.738281 55.347656 32.585938 57.867188 37.914062 54.429688 C 38.933594 53.75 38.300781 51.957031 37.042969 52.394531 C 33.894531 53.410156 31.179688 53.945312 27.933594 52.976562 C 24.980469 52.101562 22.265625 50.214844 20.472656 47.742188 C 16.453125 42.269531 17.226562 34.757812 13.0625 29.285156 C 12.578125 28.703125 11.605469 29.1875 11.996094 29.863281 Z M 11.996094 29.863281 " fill-opacity="1" fill-rule="nonzero"/><path fill="#a6a6a6" d="M 26.480469 32.238281 C 30.9375 38.003906 31.375 45.515625 35.105469 51.617188 C 37.769531 55.929688 44.699219 60.921875 49.734375 57.140625 C 50.851562 56.316406 50.269531 54.28125 48.71875 54.71875 C 45.519531 55.640625 42.757812 55.496094 40.046875 53.3125 C 37.625 51.328125 36.21875 48.277344 35.105469 45.417969 C 33.167969 40.328125 31.808594 34.808594 27.207031 31.464844 C 26.820312 31.171875 26.140625 31.804688 26.480469 32.238281 Z M 26.480469 32.238281 " fill-opacity="1" fill-rule="nonzero"/><g clip-path="url(#23c14dc8fa)"><path fill="#a6a6a6" d="M 47.992188 33.207031 C 48.378906 45.367188 49.300781 57.433594 50.703125 69.496094 C 51.1875 73.515625 52.253906 77.878906 56.132812 79.910156 C 59.667969 81.800781 63.351562 80.445312 64.851562 76.714844 C 66.742188 71.917969 66.304688 66.007812 66.160156 60.96875 C 66.015625 54.816406 65.773438 48.664062 65.382812 42.511719 C 65.046875 36.503906 64.5625 30.542969 63.929688 24.585938 C 63.445312 19.835938 63.300781 14.75 59.910156 11.019531 C 56.179688 6.949219 50.367188 4.285156 45.183594 2.6875 C 40.09375 1.183594 33.457031 -0.125 28.226562 1.472656 C 26.53125 2.007812 26.964844 4.332031 28.613281 4.476562 C 33.117188 4.867188 37.429688 4.429688 41.9375 5.496094 C 46.152344 6.464844 50.21875 8.160156 53.902344 10.4375 C 55.742188 11.601562 57.730469 12.957031 58.84375 14.894531 C 60.105469 17.074219 60.347656 19.789062 60.636719 22.257812 C 61.265625 27.105469 61.75 31.996094 62.332031 36.890625 C 63.496094 46.675781 64.707031 56.609375 65.046875 66.445312 C 65.191406 70.511719 64.320312 80.203125 57.921875 77.730469 C 53.464844 76.035156 53.417969 70.078125 52.980469 66.105469 C 51.820312 55.058594 50.558594 44.109375 48.671875 33.109375 C 48.671875 32.722656 47.992188 32.820312 47.992188 33.207031 Z M 47.992188 33.207031 " fill-opacity="1" fill-rule="nonzero"/></g><g clip-path="url(#7e2f8a8438)"><path fill="#a6a6a6" d="M 63.351562 22.160156 C 64.996094 30.445312 75.996094 32.335938 82.582031 34.953125 C 84.425781 35.679688 85.683594 37.472656 83.746094 38.972656 C 83.066406 39.507812 82.339844 39.941406 81.566406 40.28125 C 79.773438 41.105469 77.835938 41.492188 75.847656 41.492188 C 71.585938 41.492188 68.726562 39.507812 65.382812 37.179688 C 64.222656 36.355469 62.71875 37.957031 63.445312 39.117188 C 65.773438 42.800781 70.714844 44.449219 74.878906 44.691406 C 79.046875 44.882812 84.765625 43.480469 87.285156 39.84375 C 88.496094 38.054688 88.203125 35.871094 86.796875 34.226562 C 85.054688 32.238281 82.195312 31.753906 79.773438 30.980469 C 74.589844 29.332031 66.886719 27.105469 64.171875 21.824219 C 63.980469 21.289062 63.253906 21.675781 63.351562 22.160156 Z M 63.351562 22.160156 " fill-opacity="1" fill-rule="nonzero"/></g><path fill="#a6a6a6" d="M 53.03125 74.050781 C 53.320312 72.644531 54.191406 71.773438 55.257812 70.949219 C 55.890625 70.464844 59.039062 68.089844 59.570312 69.496094 C 60.007812 70.707031 61.75 70.222656 61.507812 68.960938 C 60.925781 65.957031 57.488281 67.265625 55.890625 68.382812 C 53.949219 69.738281 52.253906 71.433594 52.253906 73.953125 C 52.253906 74.390625 52.933594 74.484375 53.03125 74.050781 Z M 53.03125 74.050781 " fill-opacity="1" fill-rule="nonzero"/></g></g></g><g mask="url(#34479133e3)"><g transform="matrix(1, 0, 0, 1, 97, 18)"><g clip-path="url(#211f986360)"><g clip-path="url(#b61c058d99)"><g clip-path="url(#92de46c0cd)"><g clip-path="url(#2b5822c13a)"><path fill="#a6a6a6" d="M 65.457031 102.992188 C 70.992188 102.3125 77.546875 102.105469 82.621094 99.527344 C 87.910156 96.796875 90.996094 90.839844 93.347656 85.675781 C 95.472656 81.054688 97.363281 75.71875 95.566406 70.679688 C 94.054688 66.453125 89.964844 63.402344 85.46875 64.167969 C 83.847656 64.460938 84.441406 66.785156 86.023438 66.640625 C 90.847656 66.082031 93.363281 71.347656 93.082031 75.414062 C 92.785156 80.042969 90.554688 84.652344 88.363281 88.65625 C 86.03125 92.96875 83.613281 97.058594 78.664062 98.625 C 74.273438 100.03125 69.566406 100.492188 65.113281 101.453125 C 64.109375 101.679688 64.507812 103.136719 65.457031 102.992188 Z M 65.457031 102.992188 " fill-opacity="1" fill-rule="nonzero"/></g></g></g><g clip-path="url(#c94592205a)"><g clip-path="url(#b011bfe811)"><g clip-path="url(#20ceb42940)"><path fill="#a6a6a6" d="M 81.230469 84.707031 C 81.542969 76.878906 87.476562 70.140625 85.484375 62.054688 C 84.101562 56.363281 78.820312 50.035156 72.476562 50.085938 C 71.253906 50.117188 70.828125 51.96875 72.125 52.273438 C 75.332031 53.097656 77.90625 54.101562 80.132812 56.65625 C 82.160156 58.972656 83.441406 62.023438 83.632812 65.070312 C 84.101562 71.847656 79.425781 77.773438 80.015625 84.628906 C 80.117188 85.378906 81.191406 85.488281 81.230469 84.707031 Z M 81.230469 84.707031 " fill-opacity="1" fill-rule="nonzero"/></g></g></g><g clip-path="url(#0a45ec51fe)"><g clip-path="url(#07803e3b02)"><g clip-path="url(#9f0d0dde65)"><path fill="#a6a6a6" d="M 70.261719 74.949219 C 69.582031 67.695312 73.234375 61.117188 73.347656 53.964844 C 73.40625 48.898438 70.222656 40.972656 63.945312 41.46875 C 62.5625 41.570312 61.964844 43.597656 63.507812 44.058594 C 66.699219 44.992188 68.957031 46.59375 70.082031 49.886719 C 71.0625 52.863281 70.617188 56.191406 70.03125 59.203125 C 68.945312 64.539062 67.132812 69.929688 69.234375 75.214844 C 69.40625 75.667969 70.316406 75.5 70.261719 74.949219 Z M 70.261719 74.949219 " fill-opacity="1" fill-rule="nonzero"/></g></g></g><g clip-path="url(#3080147278)"><g clip-path="url(#e4562d11ea)"><g clip-path="url(#247763a352)"><path fill="#a6a6a6" d="M 52.609375 62.621094 C 58.789062 52.140625 64.46875 41.457031 69.738281 30.515625 C 71.480469 26.859375 72.914062 22.605469 70.726562 18.8125 C 68.75 15.324219 64.914062 14.496094 61.648438 16.84375 C 57.488281 19.886719 54.691406 25.113281 52.117188 29.445312 C 48.949219 34.722656 45.859375 40.050781 42.894531 45.453125 C 39.964844 50.710938 37.1875 56.003906 34.527344 61.375 C 32.398438 65.644531 29.796875 70.019531 30.667969 74.988281 C 31.640625 80.421875 35.125 85.78125 38.648438 89.90625 C 42.140625 93.898438 47.050781 98.554688 52.324219 100.003906 C 54.042969 100.464844 54.917969 98.265625 53.605469 97.261719 C 50.007812 94.523438 46.128906 92.582031 42.894531 89.269531 C 39.851562 86.195312 37.320312 82.585938 35.429688 78.691406 C 34.496094 76.726562 33.546875 74.515625 33.640625 72.28125 C 33.742188 69.765625 34.992188 67.34375 36.066406 65.101562 C 38.128906 60.671875 40.339844 56.28125 42.464844 51.835938 C 46.71875 42.945312 51.011719 33.90625 55.988281 25.417969 C 58.042969 21.902344 63.964844 14.183594 68.046875 19.695312 C 70.90625 23.511719 67.757812 28.570312 66 32.160156 C 61.070312 42.113281 56.273438 52.039062 51.984375 62.339844 C 51.777344 62.667969 52.402344 62.949219 52.609375 62.621094 Z M 52.609375 62.621094 " fill-opacity="1" fill-rule="nonzero"/></g></g></g><g clip-path="url(#7c30450292)"><g clip-path="url(#1ac87713fd)"><g clip-path="url(#38bd654770)"><path fill="#a6a6a6" d="M 33.722656 63.734375 C 36.765625 55.851562 28.488281 48.371094 24.320312 42.636719 C 23.15625 41.035156 23.050781 38.847656 25.492188 38.617188 C 26.347656 38.527344 27.195312 38.550781 28.03125 38.675781 C 29.988281 38.941406 31.832031 39.652344 33.511719 40.714844 C 37.113281 42.996094 38.464844 46.203125 40.042969 49.957031 C 40.585938 51.273438 42.707031 50.726562 42.71875 49.355469 C 42.722656 45 39.429688 40.964844 36.039062 38.53125 C 32.625 36.136719 27.042969 34.265625 22.96875 35.984375 C 20.988281 36.851562 20.066406 38.847656 20.371094 40.992188 C 20.78125 43.605469 22.9375 45.542969 24.570312 47.496094 C 28.066406 51.660156 33.382812 57.664062 32.847656 63.578125 C 32.726562 64.132812 33.546875 64.195312 33.722656 63.734375 Z M 33.722656 63.734375 " fill-opacity="1" fill-rule="nonzero"/></g></g></g><g clip-path="url(#02165f18a4)"><g clip-path="url(#13dfdafdf9)"><g clip-path="url(#523bd836ce)"><path fill="#a6a6a6" d="M 70.210938 25.421875 C 69.210938 26.453125 68.007812 26.722656 66.667969 26.847656 C 65.875 26.921875 61.945312 27.242188 62.246094 25.769531 C 62.527344 24.511719 60.792969 23.988281 60.324219 25.183594 C 59.207031 28.03125 62.816406 28.765625 64.761719 28.679688 C 67.125 28.574219 69.464844 28.046875 70.8125 25.917969 C 71.046875 25.550781 70.523438 25.105469 70.210938 25.421875 Z M 70.210938 25.421875 " fill-opacity="1" fill-rule="nonzero"/></g></g></g></g></g></g><g fill="#bd2373" fill-opacity="0.4"><g transform="translate(60.000532, 266.446138)"><g><path d="M 73.640625 -126.828125 L 124.828125 0 L 93.78125 0 L 84.40625 -25.359375 L 36.125 -25.359375 L 26.75 0 L -4.296875 0 L 46.890625 -126.828125 Z M 74.5625 -50.734375 L 60.421875 -87.625 L 60.109375 -87.625 L 45.96875 -50.734375 Z M 74.5625 -50.734375 "/></g></g></g><g fill="#bd2373" fill-opacity="1"><g transform="translate(53.20599, 259.651592)"><g><path d="M 73.640625 -126.828125 L 124.828125 0 L 93.78125 0 L 84.40625 -25.359375 L 36.125 -25.359375 L 26.75 0 L -4.296875 0 L 46.890625 -126.828125 Z M 74.5625 -50.734375 L 60.421875 -87.625 L 60.109375 -87.625 L 45.96875 -50.734375 Z M 74.5625 -50.734375 "/></g></g></g><g fill="#373737" fill-opacity="0.302"><g transform="translate(168.093926, 282.206248)"><g><path d="M 4.890625 -1.734375 C 4.890625 -1.492188 4.84375 -1.269531 4.75 -1.0625 C 4.664062 -0.851562 4.539062 -0.664062 4.375 -0.5 C 4.21875 -0.34375 4.03125 -0.21875 3.8125 -0.125 C 3.601562 -0.0390625 3.378906 0 3.140625 0 L 0.484375 0 L 0.484375 -6.21875 L 2.921875 -6.21875 C 3.128906 -6.21875 3.328125 -6.175781 3.515625 -6.09375 C 3.703125 -6.007812 3.863281 -5.894531 4 -5.75 C 4.144531 -5.613281 4.257812 -5.453125 4.34375 -5.265625 C 4.425781 -5.078125 4.46875 -4.875 4.46875 -4.65625 C 4.46875 -4.382812 4.421875 -4.140625 4.328125 -3.921875 C 4.242188 -3.703125 4.101562 -3.515625 3.90625 -3.359375 C 4.238281 -3.242188 4.484375 -3.035156 4.640625 -2.734375 C 4.804688 -2.441406 4.890625 -2.109375 4.890625 -1.734375 Z M 1.40625 -3.703125 C 1.632812 -3.691406 1.847656 -3.6875 2.046875 -3.6875 L 2.921875 -3.6875 C 3.148438 -3.6875 3.335938 -3.769531 3.484375 -3.9375 C 3.640625 -4.101562 3.71875 -4.304688 3.71875 -4.546875 C 3.71875 -4.785156 3.640625 -4.984375 3.484375 -5.140625 C 3.335938 -5.304688 3.148438 -5.390625 2.921875 -5.390625 L 1.40625 -5.390625 Z M 1.40625 -0.84375 C 1.445312 -0.84375 1.535156 -0.84375 1.671875 -0.84375 L 3.140625 -0.84375 C 3.265625 -0.84375 3.378906 -0.867188 3.484375 -0.921875 C 3.597656 -0.972656 3.695312 -1.039062 3.78125 -1.125 C 3.863281 -1.21875 3.925781 -1.328125 3.96875 -1.453125 C 4.019531 -1.578125 4.046875 -1.707031 4.046875 -1.84375 C 4.046875 -1.988281 4.019531 -2.117188 3.96875 -2.234375 C 3.925781 -2.359375 3.863281 -2.460938 3.78125 -2.546875 C 3.695312 -2.640625 3.597656 -2.710938 3.484375 -2.765625 C 3.378906 -2.816406 3.265625 -2.84375 3.140625 -2.84375 L 1.40625 -2.84375 Z M 1.40625 -0.84375 "/></g></g></g><g fill="#373737" fill-opacity="0.302"><g transform="translate(178.126434, 282.206248)"><g><path d="M 0.515625 0 L 0.515625 -6.21875 L 1.4375 -6.21875 L 1.4375 -0.84375 L 4.3125 -0.84375 L 4.3125 0 Z M 0.515625 0 "/></g></g></g><g fill="#373737" fill-opacity="0.302"><g transform="translate(187.396634, 282.206248)"><g><path d="M 3.375 -6.296875 C 3.789062 -6.296875 4.1875 -6.210938 4.5625 -6.046875 C 4.9375 -5.878906 5.257812 -5.648438 5.53125 -5.359375 C 5.8125 -5.066406 6.035156 -4.726562 6.203125 -4.34375 C 6.367188 -3.957031 6.453125 -3.546875 6.453125 -3.109375 C 6.453125 -2.671875 6.367188 -2.257812 6.203125 -1.875 C 6.035156 -1.488281 5.8125 -1.148438 5.53125 -0.859375 C 5.257812 -0.566406 4.9375 -0.335938 4.5625 -0.171875 C 4.1875 -0.00390625 3.785156 0.078125 3.359375 0.078125 C 2.941406 0.078125 2.546875 -0.00390625 2.171875 -0.171875 C 1.796875 -0.335938 1.46875 -0.566406 1.1875 -0.859375 C 0.914062 -1.148438 0.695312 -1.488281 0.53125 -1.875 C 0.375 -2.257812 0.296875 -2.671875 0.296875 -3.109375 C 0.296875 -3.546875 0.375 -3.957031 0.53125 -4.34375 C 0.695312 -4.726562 0.921875 -5.066406 1.203125 -5.359375 C 1.484375 -5.648438 1.8125 -5.878906 2.1875 -6.046875 C 2.5625 -6.210938 2.957031 -6.296875 3.375 -6.296875 Z M 3.375 -0.78125 C 3.675781 -0.78125 3.957031 -0.835938 4.21875 -0.953125 C 4.476562 -1.078125 4.703125 -1.242188 4.890625 -1.453125 C 5.085938 -1.671875 5.238281 -1.921875 5.34375 -2.203125 C 5.457031 -2.484375 5.515625 -2.785156 5.515625 -3.109375 C 5.515625 -3.429688 5.457031 -3.734375 5.34375 -4.015625 C 5.238281 -4.296875 5.085938 -4.539062 4.890625 -4.75 C 4.703125 -4.957031 4.476562 -5.117188 4.21875 -5.234375 C 3.957031 -5.359375 3.675781 -5.421875 3.375 -5.421875 C 3.070312 -5.421875 2.789062 -5.359375 2.53125 -5.234375 C 2.269531 -5.117188 2.039062 -4.957031 1.84375 -4.75 C 1.65625 -4.539062 1.503906 -4.296875 1.390625 -4.015625 C 1.285156 -3.734375 1.234375 -3.429688 1.234375 -3.109375 C 1.234375 -2.785156 1.285156 -2.484375 1.390625 -2.203125 C 1.503906 -1.921875 1.65625 -1.671875 1.84375 -1.453125 C 2.039062 -1.242188 2.269531 -1.078125 2.53125 -0.953125 C 2.789062 -0.835938 3.070312 -0.78125 3.375 -0.78125 Z M 3.375 -0.78125 "/></g></g></g><g fill="#373737" fill-opacity="0.302"><g transform="translate(198.892401, 282.206248)"><g><path d="M 3.96875 -3.328125 L 5.65625 -3.328125 L 5.65625 -1.046875 C 5.375 -0.710938 5.035156 -0.4375 4.640625 -0.21875 C 4.242188 -0.0078125 3.8125 0.09375 3.34375 0.09375 C 2.914062 0.09375 2.515625 0.0078125 2.140625 -0.15625 C 1.773438 -0.332031 1.453125 -0.5625 1.171875 -0.84375 C 0.898438 -1.132812 0.679688 -1.472656 0.515625 -1.859375 C 0.359375 -2.253906 0.28125 -2.671875 0.28125 -3.109375 C 0.28125 -3.535156 0.359375 -3.941406 0.515625 -4.328125 C 0.679688 -4.722656 0.898438 -5.0625 1.171875 -5.34375 C 1.453125 -5.632812 1.773438 -5.863281 2.140625 -6.03125 C 2.515625 -6.207031 2.914062 -6.296875 3.34375 -6.296875 C 3.726562 -6.296875 4.09375 -6.21875 4.4375 -6.0625 C 4.78125 -5.914062 5.085938 -5.71875 5.359375 -5.46875 L 4.828125 -4.78125 C 4.628906 -4.976562 4.398438 -5.140625 4.140625 -5.265625 C 3.890625 -5.398438 3.625 -5.46875 3.34375 -5.46875 C 3.039062 -5.46875 2.757812 -5.398438 2.5 -5.265625 C 2.238281 -5.140625 2.007812 -4.96875 1.8125 -4.75 C 1.625 -4.539062 1.472656 -4.289062 1.359375 -4 C 1.253906 -3.71875 1.203125 -3.421875 1.203125 -3.109375 C 1.203125 -2.785156 1.253906 -2.476562 1.359375 -2.1875 C 1.472656 -1.90625 1.625 -1.65625 1.8125 -1.4375 C 2.007812 -1.226562 2.238281 -1.0625 2.5 -0.9375 C 2.757812 -0.820312 3.039062 -0.765625 3.34375 -0.765625 C 3.613281 -0.765625 3.867188 -0.816406 4.109375 -0.921875 C 4.347656 -1.035156 4.5625 -1.179688 4.75 -1.359375 L 4.75 -2.46875 L 3.96875 -2.46875 Z M 3.96875 -3.328125 "/></g></g></g><g fill="#373737" fill-opacity="0.502"><g transform="translate(167.706703, 281.819003)"><g><path d="M 4.890625 -1.734375 C 4.890625 -1.492188 4.84375 -1.269531 4.75 -1.0625 C 4.664062 -0.851562 4.539062 -0.664062 4.375 -0.5 C 4.21875 -0.34375 4.03125 -0.21875 3.8125 -0.125 C 3.601562 -0.0390625 3.378906 0 3.140625 0 L 0.484375 0 L 0.484375 -6.21875 L 2.921875 -6.21875 C 3.128906 -6.21875 3.328125 -6.175781 3.515625 -6.09375 C 3.703125 -6.007812 3.863281 -5.894531 4 -5.75 C 4.144531 -5.613281 4.257812 -5.453125 4.34375 -5.265625 C 4.425781 -5.078125 4.46875 -4.875 4.46875 -4.65625 C 4.46875 -4.382812 4.421875 -4.140625 4.328125 -3.921875 C 4.242188 -3.703125 4.101562 -3.515625 3.90625 -3.359375 C 4.238281 -3.242188 4.484375 -3.035156 4.640625 -2.734375 C 4.804688 -2.441406 4.890625 -2.109375 4.890625 -1.734375 Z M 1.40625 -3.703125 C 1.632812 -3.691406 1.847656 -3.6875 2.046875 -3.6875 L 2.921875 -3.6875 C 3.148438 -3.6875 3.335938 -3.769531 3.484375 -3.9375 C 3.640625 -4.101562 3.71875 -4.304688 3.71875 -4.546875 C 3.71875 -4.785156 3.640625 -4.984375 3.484375 -5.140625 C 3.335938 -5.304688 3.148438 -5.390625 2.921875 -5.390625 L 1.40625 -5.390625 Z M 1.40625 -0.84375 C 1.445312 -0.84375 1.535156 -0.84375 1.671875 -0.84375 L 3.140625 -0.84375 C 3.265625 -0.84375 3.378906 -0.867188 3.484375 -0.921875 C 3.597656 -0.972656 3.695312 -1.039062 3.78125 -1.125 C 3.863281 -1.21875 3.925781 -1.328125 3.96875 -1.453125 C 4.019531 -1.578125 4.046875 -1.707031 4.046875 -1.84375 C 4.046875 -1.988281 4.019531 -2.117188 3.96875 -2.234375 C 3.925781 -2.359375 3.863281 -2.460938 3.78125 -2.546875 C 3.695312 -2.640625 3.597656 -2.710938 3.484375 -2.765625 C 3.378906 -2.816406 3.265625 -2.84375 3.140625 -2.84375 L 1.40625 -2.84375 Z M 1.40625 -0.84375 "/></g></g></g><g fill="#373737" fill-opacity="0.502"><g transform="translate(177.739211, 281.819003)"><g><path d="M 0.515625 0 L 0.515625 -6.21875 L 1.4375 -6.21875 L 1.4375 -0.84375 L 4.3125 -0.84375 L 4.3125 0 Z M 0.515625 0 "/></g></g></g><g fill="#373737" fill-opacity="0.502"><g transform="translate(187.009411, 281.819003)"><g><path d="M 3.375 -6.296875 C 3.789062 -6.296875 4.1875 -6.210938 4.5625 -6.046875 C 4.9375 -5.878906 5.257812 -5.648438 5.53125 -5.359375 C 5.8125 -5.066406 6.035156 -4.726562 6.203125 -4.34375 C 6.367188 -3.957031 6.453125 -3.546875 6.453125 -3.109375 C 6.453125 -2.671875 6.367188 -2.257812 6.203125 -1.875 C 6.035156 -1.488281 5.8125 -1.148438 5.53125 -0.859375 C 5.257812 -0.566406 4.9375 -0.335938 4.5625 -0.171875 C 4.1875 -0.00390625 3.785156 0.078125 3.359375 0.078125 C 2.941406 0.078125 2.546875 -0.00390625 2.171875 -0.171875 C 1.796875 -0.335938 1.46875 -0.566406 1.1875 -0.859375 C 0.914062 -1.148438 0.695312 -1.488281 0.53125 -1.875 C 0.375 -2.257812 0.296875 -2.671875 0.296875 -3.109375 C 0.296875 -3.546875 0.375 -3.957031 0.53125 -4.34375 C 0.695312 -4.726562 0.921875 -5.066406 1.203125 -5.359375 C 1.484375 -5.648438 1.8125 -5.878906 2.1875 -6.046875 C 2.5625 -6.210938 2.957031 -6.296875 3.375 -6.296875 Z M 3.375 -0.78125 C 3.675781 -0.78125 3.957031 -0.835938 4.21875 -0.953125 C 4.476562 -1.078125 4.703125 -1.242188 4.890625 -1.453125 C 5.085938 -1.671875 5.238281 -1.921875 5.34375 -2.203125 C 5.457031 -2.484375 5.515625 -2.785156 5.515625 -3.109375 C 5.515625 -3.429688 5.457031 -3.734375 5.34375 -4.015625 C 5.238281 -4.296875 5.085938 -4.539062 4.890625 -4.75 C 4.703125 -4.957031 4.476562 -5.117188 4.21875 -5.234375 C 3.957031 -5.359375 3.675781 -5.421875 3.375 -5.421875 C 3.070312 -5.421875 2.789062 -5.359375 2.53125 -5.234375 C 2.269531 -5.117188 2.039062 -4.957031 1.84375 -4.75 C 1.65625 -4.539062 1.503906 -4.296875 1.390625 -4.015625 C 1.285156 -3.734375 1.234375 -3.429688 1.234375 -3.109375 C 1.234375 -2.785156 1.285156 -2.484375 1.390625 -2.203125 C 1.503906 -1.921875 1.65625 -1.671875 1.84375 -1.453125 C 2.039062 -1.242188 2.269531 -1.078125 2.53125 -0.953125 C 2.789062 -0.835938 3.070312 -0.78125 3.375 -0.78125 Z M 3.375 -0.78125 "/></g></g></g><g fill="#373737" fill-opacity="0.502"><g transform="translate(198.505178, 281.819003)"><g><path d="M 3.96875 -3.328125 L 5.65625 -3.328125 L 5.65625 -1.046875 C 5.375 -0.710938 5.035156 -0.4375 4.640625 -0.21875 C 4.242188 -0.0078125 3.8125 0.09375 3.34375 0.09375 C 2.914062 0.09375 2.515625 0.0078125 2.140625 -0.15625 C 1.773438 -0.332031 1.453125 -0.5625 1.171875 -0.84375 C 0.898438 -1.132812 0.679688 -1.472656 0.515625 -1.859375 C 0.359375 -2.253906 0.28125 -2.671875 0.28125 -3.109375 C 0.28125 -3.535156 0.359375 -3.941406 0.515625 -4.328125 C 0.679688 -4.722656 0.898438 -5.0625 1.171875 -5.34375 C 1.453125 -5.632812 1.773438 -5.863281 2.140625 -6.03125 C 2.515625 -6.207031 2.914062 -6.296875 3.34375 -6.296875 C 3.726562 -6.296875 4.09375 -6.21875 4.4375 -6.0625 C 4.78125 -5.914062 5.085938 -5.71875 5.359375 -5.46875 L 4.828125 -4.78125 C 4.628906 -4.976562 4.398438 -5.140625 4.140625 -5.265625 C 3.890625 -5.398438 3.625 -5.46875 3.34375 -5.46875 C 3.039062 -5.46875 2.757812 -5.398438 2.5 -5.265625 C 2.238281 -5.140625 2.007812 -4.96875 1.8125 -4.75 C 1.625 -4.539062 1.472656 -4.289062 1.359375 -4 C 1.253906 -3.71875 1.203125 -3.421875 1.203125 -3.109375 C 1.203125 -2.785156 1.253906 -2.476562 1.359375 -2.1875 C 1.472656 -1.90625 1.625 -1.65625 1.8125 -1.4375 C 2.007812 -1.226562 2.238281 -1.0625 2.5 -0.9375 C 2.757812 -0.820312 3.039062 -0.765625 3.34375 -0.765625 C 3.613281 -0.765625 3.867188 -0.816406 4.109375 -0.921875 C 4.347656 -1.035156 4.5625 -1.179688 4.75 -1.359375 L 4.75 -2.46875 L 3.96875 -2.46875 Z M 3.96875 -3.328125 "/></g></g></g><g fill="#373737" fill-opacity="1"><g transform="translate(167.31947, 281.431787)"><g><path d="M 4.890625 -1.734375 C 4.890625 -1.492188 4.84375 -1.269531 4.75 -1.0625 C 4.664062 -0.851562 4.539062 -0.664062 4.375 -0.5 C 4.21875 -0.34375 4.03125 -0.21875 3.8125 -0.125 C 3.601562 -0.0390625 3.378906 0 3.140625 0 L 0.484375 0 L 0.484375 -6.21875 L 2.921875 -6.21875 C 3.128906 -6.21875 3.328125 -6.175781 3.515625 -6.09375 C 3.703125 -6.007812 3.863281 -5.894531 4 -5.75 C 4.144531 -5.613281 4.257812 -5.453125 4.34375 -5.265625 C 4.425781 -5.078125 4.46875 -4.875 4.46875 -4.65625 C 4.46875 -4.382812 4.421875 -4.140625 4.328125 -3.921875 C 4.242188 -3.703125 4.101562 -3.515625 3.90625 -3.359375 C 4.238281 -3.242188 4.484375 -3.035156 4.640625 -2.734375 C 4.804688 -2.441406 4.890625 -2.109375 4.890625 -1.734375 Z M 1.40625 -3.703125 C 1.632812 -3.691406 1.847656 -3.6875 2.046875 -3.6875 L 2.921875 -3.6875 C 3.148438 -3.6875 3.335938 -3.769531 3.484375 -3.9375 C 3.640625 -4.101562 3.71875 -4.304688 3.71875 -4.546875 C 3.71875 -4.785156 3.640625 -4.984375 3.484375 -5.140625 C 3.335938 -5.304688 3.148438 -5.390625 2.921875 -5.390625 L 1.40625 -5.390625 Z M 1.40625 -0.84375 C 1.445312 -0.84375 1.535156 -0.84375 1.671875 -0.84375 L 3.140625 -0.84375 C 3.265625 -0.84375 3.378906 -0.867188 3.484375 -0.921875 C 3.597656 -0.972656 3.695312 -1.039062 3.78125 -1.125 C 3.863281 -1.21875 3.925781 -1.328125 3.96875 -1.453125 C 4.019531 -1.578125 4.046875 -1.707031 4.046875 -1.84375 C 4.046875 -1.988281 4.019531 -2.117188 3.96875 -2.234375 C 3.925781 -2.359375 3.863281 -2.460938 3.78125 -2.546875 C 3.695312 -2.640625 3.597656 -2.710938 3.484375 -2.765625 C 3.378906 -2.816406 3.265625 -2.84375 3.140625 -2.84375 L 1.40625 -2.84375 Z M 1.40625 -0.84375 "/></g></g></g><g fill="#373737" fill-opacity="1"><g transform="translate(177.351978, 281.431787)"><g><path d="M 0.515625 0 L 0.515625 -6.21875 L 1.4375 -6.21875 L 1.4375 -0.84375 L 4.3125 -0.84375 L 4.3125 0 Z M 0.515625 0 "/></g></g></g><g fill="#373737" fill-opacity="1"><g transform="translate(186.622178, 281.431787)"><g><path d="M 3.375 -6.296875 C 3.789062 -6.296875 4.1875 -6.210938 4.5625 -6.046875 C 4.9375 -5.878906 5.257812 -5.648438 5.53125 -5.359375 C 5.8125 -5.066406 6.035156 -4.726562 6.203125 -4.34375 C 6.367188 -3.957031 6.453125 -3.546875 6.453125 -3.109375 C 6.453125 -2.671875 6.367188 -2.257812 6.203125 -1.875 C 6.035156 -1.488281 5.8125 -1.148438 5.53125 -0.859375 C 5.257812 -0.566406 4.9375 -0.335938 4.5625 -0.171875 C 4.1875 -0.00390625 3.785156 0.078125 3.359375 0.078125 C 2.941406 0.078125 2.546875 -0.00390625 2.171875 -0.171875 C 1.796875 -0.335938 1.46875 -0.566406 1.1875 -0.859375 C 0.914062 -1.148438 0.695312 -1.488281 0.53125 -1.875 C 0.375 -2.257812 0.296875 -2.671875 0.296875 -3.109375 C 0.296875 -3.546875 0.375 -3.957031 0.53125 -4.34375 C 0.695312 -4.726562 0.921875 -5.066406 1.203125 -5.359375 C 1.484375 -5.648438 1.8125 -5.878906 2.1875 -6.046875 C 2.5625 -6.210938 2.957031 -6.296875 3.375 -6.296875 Z M 3.375 -0.78125 C 3.675781 -0.78125 3.957031 -0.835938 4.21875 -0.953125 C 4.476562 -1.078125 4.703125 -1.242188 4.890625 -1.453125 C 5.085938 -1.671875 5.238281 -1.921875 5.34375 -2.203125 C 5.457031 -2.484375 5.515625 -2.785156 5.515625 -3.109375 C 5.515625 -3.429688 5.457031 -3.734375 5.34375 -4.015625 C 5.238281 -4.296875 5.085938 -4.539062 4.890625 -4.75 C 4.703125 -4.957031 4.476562 -5.117188 4.21875 -5.234375 C 3.957031 -5.359375 3.675781 -5.421875 3.375 -5.421875 C 3.070312 -5.421875 2.789062 -5.359375 2.53125 -5.234375 C 2.269531 -5.117188 2.039062 -4.957031 1.84375 -4.75 C 1.65625 -4.539062 1.503906 -4.296875 1.390625 -4.015625 C 1.285156 -3.734375 1.234375 -3.429688 1.234375 -3.109375 C 1.234375 -2.785156 1.285156 -2.484375 1.390625 -2.203125 C 1.503906 -1.921875 1.65625 -1.671875 1.84375 -1.453125 C 2.039062 -1.242188 2.269531 -1.078125 2.53125 -0.953125 C 2.789062 -0.835938 3.070312 -0.78125 3.375 -0.78125 Z M 3.375 -0.78125 "/></g></g></g><g fill="#373737" fill-opacity="1"><g transform="translate(198.117945, 281.431787)"><g><path d="M 3.96875 -3.328125 L 5.65625 -3.328125 L 5.65625 -1.046875 C 5.375 -0.710938 5.035156 -0.4375 4.640625 -0.21875 C 4.242188 -0.0078125 3.8125 0.09375 3.34375 0.09375 C 2.914062 0.09375 2.515625 0.0078125 2.140625 -0.15625 C 1.773438 -0.332031 1.453125 -0.5625 1.171875 -0.84375 C 0.898438 -1.132812 0.679688 -1.472656 0.515625 -1.859375 C 0.359375 -2.253906 0.28125 -2.671875 0.28125 -3.109375 C 0.28125 -3.535156 0.359375 -3.941406 0.515625 -4.328125 C 0.679688 -4.722656 0.898438 -5.0625 1.171875 -5.34375 C 1.453125 -5.632812 1.773438 -5.863281 2.140625 -6.03125 C 2.515625 -6.207031 2.914062 -6.296875 3.34375 -6.296875 C 3.726562 -6.296875 4.09375 -6.21875 4.4375 -6.0625 C 4.78125 -5.914062 5.085938 -5.71875 5.359375 -5.46875 L 4.828125 -4.78125 C 4.628906 -4.976562 4.398438 -5.140625 4.140625 -5.265625 C 3.890625 -5.398438 3.625 -5.46875 3.34375 -5.46875 C 3.039062 -5.46875 2.757812 -5.398438 2.5 -5.265625 C 2.238281 -5.140625 2.007812 -4.96875 1.8125 -4.75 C 1.625 -4.539062 1.472656 -4.289062 1.359375 -4 C 1.253906 -3.71875 1.203125 -3.421875 1.203125 -3.109375 C 1.203125 -2.785156 1.253906 -2.476562 1.359375 -2.1875 C 1.472656 -1.90625 1.625 -1.65625 1.8125 -1.4375 C 2.007812 -1.226562 2.238281 -1.0625 2.5 -0.9375 C 2.757812 -0.820312 3.039062 -0.765625 3.34375 -0.765625 C 3.613281 -0.765625 3.867188 -0.816406 4.109375 -0.921875 C 4.347656 -1.035156 4.5625 -1.179688 4.75 -1.359375 L 4.75 -2.46875 L 3.96875 -2.46875 Z M 3.96875 -3.328125 "/></g></g></g><path stroke-linecap="butt" transform="matrix(0.778533, 0, 0, 0.778533, -52.255446, 143.121187)" fill="none" stroke-linejoin="miter" d="M 134.143454 58.00158 L 131.800305 28.659543 L 131.504276 28.659543 L 121.369031 57.70555 L 114.64565 57.70555 L 104.505388 28.659543 L 104.199323 28.659543 L 101.871227 58.00158 L 90.592004 58.00158 L 95.032446 8.504454 L 107.029164 8.504454 L 117.997306 37.053734 L 128.985517 8.504454 L 140.982235 8.504454 L 145.422677 58.00158 Z M 134.143454 58.00158 " stroke="#bfbfbf" stroke-width="4.500045" stroke-opacity="1" stroke-miterlimit="4"/><g fill="#e54694" fill-opacity="1"><g transform="translate(17.520593, 188.276114)"><g><path d="M 34.671875 0 L 32.84375 -22.84375 L 32.609375 -22.84375 L 24.71875 -0.234375 L 19.484375 -0.234375 L 11.59375 -22.84375 L 11.359375 -22.84375 L 9.53125 0 L 0.75 0 L 4.203125 -38.546875 L 13.546875 -38.546875 L 22.09375 -16.3125 L 30.640625 -38.546875 L 39.984375 -38.546875 L 43.453125 0 Z M 34.671875 0 "/></g></g></g><path stroke-linecap="butt" transform="matrix(0.778533, 0, 0, 0.778533, 141.610615, 143.121173)" fill="none" stroke-linejoin="miter" d="M 33.274123 58.001598 L 33.274123 27.224572 L 43.896061 27.224572 L 43.896061 31.659996 L 44.011462 31.659996 C 44.091741 31.49442 44.217177 31.293722 44.392788 31.062919 C 44.578433 30.817065 44.969794 30.395599 45.566871 29.80354 C 46.168965 29.196429 46.811198 28.654544 47.483536 28.177887 C 48.165909 27.696212 49.04898 27.269729 50.122714 26.888403 C 51.206482 26.507077 52.310321 26.316414 53.429212 26.316414 C 54.59326 26.316414 55.732221 26.476972 56.846094 26.798089 C 57.970003 27.119205 58.787847 27.445339 59.304644 27.766456 L 60.15761 28.233079 L 55.717168 37.244416 C 54.387545 36.120507 52.546141 35.558553 50.192958 35.558553 C 48.913509 35.558553 47.80967 35.83953 46.881442 36.406502 C 45.968267 36.963438 45.315998 37.645811 44.934672 38.443586 C 44.563381 39.246377 44.297456 39.923733 44.131881 40.48067 C 43.971322 41.037606 43.896061 41.474124 43.896061 41.800258 L 43.896061 58.001598 Z M 98.310285 27.224572 L 83.679407 41.91566 L 99.745275 58.001598 L 86.067712 58.001598 L 73.774964 45.693798 L 73.774964 58.001598 L 63.153026 58.001598 L 63.153026 6.392127 L 73.774964 6.392127 L 73.774964 37.961911 L 84.512303 27.224572 Z M 133.056114 44.083197 L 110.733487 44.083197 C 110.733487 46.2407 111.430912 47.841266 112.83078 48.889913 C 114.235666 49.923507 115.755952 50.440304 117.396658 50.440304 C 119.117643 50.440304 120.477371 50.209501 121.470826 49.752914 C 122.469298 49.296326 123.608259 48.38315 124.897743 47.013387 L 132.574438 50.866787 C 129.373307 56.215387 124.049794 58.894704 116.608919 58.894704 C 111.967779 58.894704 107.988943 57.304173 104.667392 54.133146 C 101.350859 50.947066 99.690084 47.118753 99.690084 42.648207 C 99.690084 38.167626 101.350859 34.324261 104.667392 31.118111 C 107.988943 27.91698 111.967779 26.316414 116.608919 26.316414 C 121.490896 26.316414 125.459697 27.726316 128.515323 30.55114 C 131.580984 33.370946 133.116323 37.399956 133.116323 42.633155 C 133.116323 43.355667 133.096253 43.837342 133.056114 44.083197 Z M 111.024499 38.197731 L 122.730205 38.197731 C 122.48435 36.592147 121.857169 35.362873 120.838627 34.504889 C 119.825103 33.646905 118.515549 33.215405 116.914983 33.215405 C 115.158876 33.215405 113.753991 33.67701 112.710361 34.605238 C 111.676767 35.523431 111.114813 36.722601 111.024499 38.197731 Z M 139.894895 27.224572 L 139.894895 15.754685 L 150.516833 15.754685 L 150.516833 27.224572 L 156.989341 27.224572 L 156.989341 35.322733 L 150.516833 35.322733 L 150.516833 45.096722 C 150.516833 47.936597 151.314607 49.356535 152.905138 49.356535 C 153.306534 49.356535 153.722982 49.281274 154.164518 49.120715 C 154.616088 48.955139 154.957275 48.794581 155.188077 48.63904 L 155.554351 48.40322 L 158.193529 56.973022 C 155.905572 58.252471 153.306534 58.894704 150.386379 58.894704 C 148.394452 58.894704 146.673468 58.5485 145.228443 57.851075 C 143.793452 57.148632 142.704666 56.210369 141.962084 55.026252 C 141.219502 53.847151 140.687652 52.602824 140.366535 51.303305 C 140.055454 50.008804 139.894895 48.61897 139.894895 47.143841 L 139.894895 35.322733 L 135.459471 35.322733 L 135.459471 27.224572 Z M 162.804563 10.054864 C 164.043873 8.815555 165.52402 8.193391 167.245005 8.193391 C 168.971007 8.193391 170.456172 8.815555 171.695481 10.054864 C 172.939809 11.294174 173.556955 12.779339 173.556955 14.510358 C 173.556955 16.226325 172.939809 17.706473 171.695481 18.945782 C 170.456172 20.180075 168.971007 20.792203 167.245005 20.792203 C 165.52402 20.792203 164.043873 20.180075 162.804563 18.945782 C 161.565254 17.706473 160.948108 16.226325 160.948108 14.510358 C 160.948108 12.779339 161.565254 11.294174 162.804563 10.054864 Z M 161.796056 27.224572 L 161.796056 58.001598 L 172.412977 58.001598 L 172.412977 27.224572 Z M 179.914061 58.001598 L 179.914061 27.224572 L 190.535999 27.224572 L 190.535999 30.460826 L 190.6514 30.460826 C 193.416014 27.696212 196.356239 26.316414 199.472074 26.316414 C 200.992361 26.316414 202.502613 26.517111 203.997812 26.918507 C 205.503047 27.314886 206.943054 27.937049 208.317835 28.774963 C 209.707668 29.617894 210.826559 30.80703 211.68956 32.352404 C 212.547544 33.89276 212.979045 35.683989 212.979045 37.726091 L 212.979045 58.001598 L 202.357107 58.001598 L 202.357107 40.596071 C 202.357107 38.995505 201.845327 37.600654 200.81675 36.406502 C 199.803226 35.207332 198.473602 34.605238 196.832896 34.605238 C 195.232331 34.605238 193.782288 35.227401 192.482769 36.466711 C 191.18325 37.706021 190.535999 39.085819 190.535999 40.596071 L 190.535999 58.001598 Z M 218.197191 65.557875 L 226.882393 61.298062 C 228.487977 63.942257 231.267643 65.266863 235.236444 65.266863 C 237.07283 65.266863 238.778763 64.674804 240.359259 63.490687 C 241.944772 62.311586 242.732512 60.500288 242.732512 58.05679 L 242.732512 55.773851 C 240.850969 57.851075 237.489279 58.894704 232.657476 58.894704 C 228.212017 58.894704 224.54928 57.324243 221.669265 54.193355 C 218.789249 51.047415 217.349242 47.194015 217.349242 42.633155 C 217.349242 38.072294 218.789249 34.213877 221.669265 31.062919 C 224.54928 27.89691 228.212017 26.316414 232.657476 26.316414 C 236.611225 26.316414 239.912706 27.535653 242.556901 29.979151 L 242.732512 29.979151 L 242.732512 27.224572 L 253.354449 27.224572 L 253.354449 58.834495 C 253.354449 63.836891 251.693674 67.690291 248.372124 70.40473 C 245.05559 73.134222 240.675358 74.49395 235.236444 74.49395 C 226.43584 74.49395 220.756089 71.513586 218.197191 65.557875 Z M 230.695654 37.420026 C 229.315856 38.774737 228.628465 40.520809 228.628465 42.648207 C 228.628465 44.76557 229.285751 46.49659 230.60534 47.836249 C 231.934963 49.17089 233.676018 49.843228 235.833521 49.843228 C 237.915762 49.843228 239.621694 49.160855 240.961353 47.806144 C 242.301011 46.43638 242.968332 44.715396 242.968332 42.633155 C 242.968332 40.515792 242.280941 38.774737 240.901143 37.420026 C 239.526362 36.060298 237.835482 35.382942 235.833521 35.382942 C 233.796437 35.382942 232.080469 36.060298 230.695654 37.420026 Z M 230.695654 37.420026 " stroke="#bfbfbf" stroke-width="4.500045" stroke-opacity="1" stroke-miterlimit="4"/><g fill="#e54694" fill-opacity="1"><g transform="translate(164.711155, 188.276099)"><g><path d="M 2.796875 0 L 2.796875 -23.96875 L 11.078125 -23.96875 L 11.078125 -20.515625 L 11.171875 -20.515625 C 11.234375 -20.640625 11.332031 -20.789062 11.46875 -20.96875 C 11.613281 -21.15625 11.914062 -21.484375 12.375 -21.953125 C 12.84375 -22.421875 13.34375 -22.84375 13.875 -23.21875 C 14.40625 -23.59375 15.085938 -23.925781 15.921875 -24.21875 C 16.765625 -24.519531 17.625 -24.671875 18.5 -24.671875 C 19.40625 -24.671875 20.289062 -24.546875 21.15625 -24.296875 C 22.03125 -24.046875 22.671875 -23.796875 23.078125 -23.546875 L 23.734375 -23.171875 L 20.28125 -16.171875 C 19.25 -17.035156 17.816406 -17.46875 15.984375 -17.46875 C 14.984375 -17.46875 14.125 -17.25 13.40625 -16.8125 C 12.6875 -16.382812 12.179688 -15.859375 11.890625 -15.234375 C 11.597656 -14.609375 11.390625 -14.078125 11.265625 -13.640625 C 11.140625 -13.203125 11.078125 -12.859375 11.078125 -12.609375 L 11.078125 0 Z M 2.796875 0 "/></g></g></g><g fill="#e54694" fill-opacity="1"><g transform="translate(187.973708, 188.276099)"><g><path d="M 30.1875 -23.96875 L 18.78125 -12.515625 L 31.296875 0 L 20.65625 0 L 11.078125 -9.578125 L 11.078125 0 L 2.796875 0 L 2.796875 -40.171875 L 11.078125 -40.171875 L 11.078125 -15.609375 L 19.4375 -23.96875 Z M 30.1875 -23.96875 "/></g></g></g><g fill="#e54694" fill-opacity="1"><g transform="translate(218.149627, 188.276099)"><g><path d="M 27.046875 -10.84375 L 9.671875 -10.84375 C 9.671875 -9.15625 10.210938 -7.90625 11.296875 -7.09375 C 12.390625 -6.289062 13.578125 -5.890625 14.859375 -5.890625 C 16.191406 -5.890625 17.25 -6.066406 18.03125 -6.421875 C 18.8125 -6.785156 19.703125 -7.492188 20.703125 -8.546875 L 26.671875 -5.5625 C 24.179688 -1.382812 20.039062 0.703125 14.25 0.703125 C 10.632812 0.703125 7.535156 -0.535156 4.953125 -3.015625 C 2.367188 -5.492188 1.078125 -8.472656 1.078125 -11.953125 C 1.078125 -15.441406 2.367188 -18.429688 4.953125 -20.921875 C 7.535156 -23.421875 10.632812 -24.671875 14.25 -24.671875 C 18.050781 -24.671875 21.140625 -23.570312 23.515625 -21.375 C 25.898438 -19.175781 27.09375 -16.035156 27.09375 -11.953125 C 27.09375 -11.398438 27.078125 -11.03125 27.046875 -10.84375 Z M 9.90625 -15.421875 L 19.015625 -15.421875 C 18.828125 -16.660156 18.335938 -17.613281 17.546875 -18.28125 C 16.753906 -18.957031 15.734375 -19.296875 14.484375 -19.296875 C 13.109375 -19.296875 12.015625 -18.9375 11.203125 -18.21875 C 10.398438 -17.5 9.96875 -16.566406 9.90625 -15.421875 Z M 9.90625 -15.421875 "/></g></g></g><g fill="#e54694" fill-opacity="1"><g transform="translate(246.316929, 188.276099)"><g><path d="M 4.203125 -23.96875 L 4.203125 -32.890625 L 12.46875 -32.890625 L 12.46875 -23.96875 L 17.515625 -23.96875 L 17.515625 -17.65625 L 12.46875 -17.65625 L 12.46875 -10.046875 C 12.46875 -7.835938 13.09375 -6.734375 14.34375 -6.734375 C 14.65625 -6.734375 14.984375 -6.789062 15.328125 -6.90625 C 15.671875 -7.03125 15.9375 -7.15625 16.125 -7.28125 L 16.390625 -7.46875 L 18.453125 -0.796875 C 16.679688 0.203125 14.65625 0.703125 12.375 0.703125 C 10.820312 0.703125 9.484375 0.429688 8.359375 -0.109375 C 7.242188 -0.660156 6.394531 -1.394531 5.8125 -2.3125 C 5.238281 -3.226562 4.828125 -4.191406 4.578125 -5.203125 C 4.328125 -6.222656 4.203125 -7.304688 4.203125 -8.453125 L 4.203125 -17.65625 L 0.75 -17.65625 L 0.75 -23.96875 Z M 4.203125 -23.96875 "/></g></g></g><g fill="#e54694" fill-opacity="1"><g transform="translate(264.768152, 188.276099)"><g><path d="M 3.59375 -37.328125 C 4.5625 -38.296875 5.710938 -38.78125 7.046875 -38.78125 C 8.390625 -38.78125 9.539062 -38.296875 10.5 -37.328125 C 11.46875 -36.359375 11.953125 -35.203125 11.953125 -33.859375 C 11.953125 -32.523438 11.46875 -31.375 10.5 -30.40625 C 9.539062 -29.445312 8.390625 -28.96875 7.046875 -28.96875 C 5.710938 -28.96875 4.5625 -29.445312 3.59375 -30.40625 C 2.632812 -31.375 2.15625 -32.523438 2.15625 -33.859375 C 2.15625 -35.203125 2.632812 -36.359375 3.59375 -37.328125 Z M 2.796875 -23.96875 L 2.796875 0 L 11.078125 0 L 11.078125 -23.96875 Z M 2.796875 -23.96875 "/></g></g></g><g fill="#e54694" fill-opacity="1"><g transform="translate(278.875158, 188.276099)"><g><path d="M 2.796875 0 L 2.796875 -23.96875 L 11.078125 -23.96875 L 11.078125 -21.4375 L 11.171875 -21.4375 C 13.316406 -23.59375 15.601562 -24.671875 18.03125 -24.671875 C 19.21875 -24.671875 20.394531 -24.515625 21.5625 -24.203125 C 22.726562 -23.890625 23.847656 -23.40625 24.921875 -22.75 C 25.992188 -22.09375 26.863281 -21.164062 27.53125 -19.96875 C 28.207031 -18.769531 28.546875 -17.378906 28.546875 -15.796875 L 28.546875 0 L 20.28125 0 L 20.28125 -13.546875 C 20.28125 -14.796875 19.878906 -15.882812 19.078125 -16.8125 C 18.285156 -17.75 17.253906 -18.21875 15.984375 -18.21875 C 14.734375 -18.21875 13.601562 -17.734375 12.59375 -16.765625 C 11.582031 -15.804688 11.078125 -14.734375 11.078125 -13.546875 L 11.078125 0 Z M 2.796875 0 "/></g></g></g><g fill="#e54694" fill-opacity="1"><g transform="translate(309.751753, 188.276099)"><g><path d="M 1.734375 5.890625 L 8.5 2.5625 C 9.75 4.625 11.914062 5.65625 15 5.65625 C 16.425781 5.65625 17.753906 5.191406 18.984375 4.265625 C 20.222656 3.347656 20.84375 1.941406 20.84375 0.046875 L 20.84375 -1.734375 C 19.375 -0.109375 16.753906 0.703125 12.984375 0.703125 C 9.523438 0.703125 6.675781 -0.519531 4.4375 -2.96875 C 2.195312 -5.414062 1.078125 -8.410156 1.078125 -11.953125 C 1.078125 -15.503906 2.195312 -18.507812 4.4375 -20.96875 C 6.675781 -23.4375 9.523438 -24.671875 12.984375 -24.671875 C 16.066406 -24.671875 18.640625 -23.71875 20.703125 -21.8125 L 20.84375 -21.8125 L 20.84375 -23.96875 L 29.109375 -23.96875 L 29.109375 0.65625 C 29.109375 4.550781 27.8125 7.554688 25.21875 9.671875 C 22.632812 11.785156 19.226562 12.84375 15 12.84375 C 8.144531 12.84375 3.722656 10.523438 1.734375 5.890625 Z M 11.46875 -16.015625 C 10.394531 -14.960938 9.859375 -13.609375 9.859375 -11.953125 C 9.859375 -10.304688 10.367188 -8.960938 11.390625 -7.921875 C 12.421875 -6.878906 13.78125 -6.359375 15.46875 -6.359375 C 17.082031 -6.359375 18.410156 -6.882812 19.453125 -7.9375 C 20.503906 -9 21.03125 -10.335938 21.03125 -11.953125 C 21.03125 -13.609375 20.488281 -14.960938 19.40625 -16.015625 C 18.332031 -17.078125 17.019531 -17.609375 15.46875 -17.609375 C 13.875 -17.609375 12.539062 -17.078125 11.46875 -16.015625 Z M 11.46875 -16.015625 "/></g></g></g><g fill="#808080" fill-opacity="1"><g transform="translate(194.436883, 248.615062)"><g><path d="M 3.84375 -2.59375 C 1.90625 -4.726562 0.9375 -7.332031 0.9375 -10.40625 C 0.9375 -13.476562 1.90625 -16.070312 3.84375 -18.1875 C 5.789062 -20.3125 8.257812 -21.375 11.25 -21.375 C 14.007812 -21.375 16.28125 -20.390625 18.0625 -18.421875 L 18.140625 -18.421875 L 18.140625 -20.765625 L 25.21875 -20.765625 L 25.21875 10.53125 L 18.0625 10.53125 L 18.0625 -1.984375 C 16.28125 -0.253906 14.007812 0.609375 11.25 0.609375 C 8.257812 0.609375 5.789062 -0.457031 3.84375 -2.59375 Z M 9.875 -13.90625 C 8.988281 -13 8.546875 -11.832031 8.546875 -10.40625 C 8.546875 -8.976562 9.007812 -7.800781 9.9375 -6.875 C 10.863281 -5.957031 12.019531 -5.5 13.40625 -5.5 C 14.75 -5.5 15.882812 -5.957031 16.8125 -6.875 C 17.75 -7.800781 18.21875 -8.976562 18.21875 -10.40625 C 18.21875 -11.8125 17.765625 -12.972656 16.859375 -13.890625 C 15.953125 -14.804688 14.800781 -15.265625 13.40625 -15.265625 C 11.945312 -15.265625 10.769531 -14.8125 9.875 -13.90625 Z M 9.875 -13.90625 "/></g></g></g><g fill="#808080" fill-opacity="1"><g transform="translate(222.087298, 248.615062)"><g><path d="M 9.1875 -20.765625 L 9.1875 -10.890625 C 9.1875 -8.835938 9.492188 -7.378906 10.109375 -6.515625 C 10.734375 -5.648438 11.785156 -5.21875 13.265625 -5.21875 C 14.753906 -5.21875 15.8125 -5.648438 16.4375 -6.515625 C 17.0625 -7.378906 17.375 -8.835938 17.375 -10.890625 L 17.375 -20.765625 L 24.53125 -20.765625 L 24.53125 -9.15625 C 24.53125 -5.695312 23.632812 -3.203125 21.84375 -1.671875 C 20.050781 -0.148438 17.195312 0.609375 13.28125 0.609375 C 9.363281 0.609375 6.507812 -0.148438 4.71875 -1.671875 C 2.925781 -3.203125 2.03125 -5.695312 2.03125 -9.15625 L 2.03125 -20.765625 Z M 9.1875 -20.765625 "/></g></g></g><g fill="#808080" fill-opacity="1"><g transform="translate(248.644646, 248.615062)"><g><path d="M 3.640625 -26.875 L 11.859375 -34 L 15.546875 -29.34375 L 5.90625 -23.765625 Z M 2.421875 -20.765625 L 2.421875 0 L 9.59375 0 L 9.59375 -20.765625 Z M 2.421875 -20.765625 "/></g></g></g><g fill="#808080" fill-opacity="1"><g transform="translate(260.668325, 248.615062)"><g/></g></g><g fill="#808080" fill-opacity="1"><g transform="translate(271.720394, 248.615062)"><g><path d="M 18.171875 -20.765625 L 26.4375 -20.765625 L 10.125 10.53125 L 1.859375 10.53125 L 9.03125 -3.234375 L -0.8125 -20.765625 L 7.453125 -20.765625 L 13.234375 -10.125 Z M 18.171875 -20.765625 "/></g></g></g><path stroke-linecap="butt" transform="matrix(0.778533, 0, 0, 0.778533, 82.99617, 208.677759)" fill="none" stroke-linejoin="miter" d="M 145.781857 45.676307 C 143.283168 42.931763 142.03884 39.585125 142.03884 35.631376 C 142.03884 31.677627 143.283168 28.346041 145.781857 25.626584 C 148.280546 22.90211 151.451573 21.542382 155.304973 21.542382 C 158.832239 21.542382 161.742359 22.806779 164.04035 25.335572 L 164.140699 25.335572 L 164.140699 22.325104 L 173.24235 22.325104 L 173.24235 62.51988 L 164.04035 62.51988 L 164.04035 46.448994 C 161.742359 48.666706 158.832239 49.775562 155.304973 49.775562 C 151.451573 49.775562 148.280546 48.405799 145.781857 45.676307 Z M 153.528797 31.135743 C 152.384818 32.294773 151.812829 33.79499 151.812829 35.631376 C 151.812829 37.467762 152.409906 38.978014 153.604058 40.162132 C 154.803228 41.341232 156.288393 41.928273 158.059552 41.928273 C 159.795589 41.928273 161.255667 41.341232 162.449819 40.162132 C 163.643972 38.978014 164.241048 37.467762 164.241048 35.631376 C 164.241048 33.830112 163.659024 32.33993 162.499994 31.16083 C 161.340963 29.986747 159.860816 29.399705 158.059552 29.399705 C 156.188044 29.399705 154.677792 29.976712 153.528797 31.135743 Z M 188.164241 22.325104 L 188.164241 35.009212 C 188.164241 37.643373 188.565637 39.514881 189.358394 40.633772 C 190.156168 41.742628 191.505861 42.294547 193.407474 42.294547 C 195.324139 42.294547 196.67885 41.742628 197.471607 40.633772 C 198.269381 39.514881 198.66576 37.643373 198.66576 35.009212 L 198.66576 22.325104 L 207.86776 22.325104 L 207.86776 37.241977 C 207.86776 41.687436 206.713747 44.888568 204.40572 46.840355 C 202.102712 48.79716 198.434957 49.775562 193.407474 49.775562 C 188.390026 49.775562 184.727289 48.79716 182.414245 46.840355 C 180.111237 44.888568 178.962241 41.687436 178.962241 37.241977 L 178.962241 22.325104 Z M 215.158112 14.46778 L 225.704788 5.315955 L 230.441259 11.296753 L 218.063214 18.481738 Z M 213.592668 22.325104 L 213.592668 48.997858 L 222.799685 48.997858 L 222.799685 22.325104 Z M 263.456067 22.325104 L 274.072987 22.325104 L 253.110089 62.51988 L 242.498186 62.51988 L 251.700186 44.838393 L 239.071269 22.325104 L 249.683172 22.325104 L 257.108995 35.99765 Z M 263.456067 22.325104 " stroke="#940051" stroke-width="1.95003" stroke-opacity="1" stroke-miterlimit="4"/><g fill="#808080" fill-opacity="1"><g transform="translate(153.427609, 136.440293)"><g><path d="M 1.484375 -2.375 L -32.5625 -23.703125 L -28.171875 -30.71875 L 5.875 -9.390625 Z M 1.484375 -2.375 "/></g></g></g><g fill="#808080" fill-opacity="1"><g transform="translate(160.555139, 125.051424)"><g><path d="M 1.5625 -2.3125 L -31.703125 -24.828125 L -27.0625 -31.6875 L 6.203125 -9.171875 Z M 1.5625 -2.3125 "/></g></g></g><g fill="#808080" fill-opacity="1"><g transform="translate(167.699057, 113.992543)"><g><path d="M -16.59375 -29.34375 L -17.375 -41.890625 L -10.53125 -42 L -12.15625 -29.25 Z M -13.953125 -16.265625 C -13.359375 -12.992188 -11.648438 -10.28125 -8.828125 -8.125 C -6.015625 -5.96875 -2.957031 -5.035156 0.34375 -5.328125 C 3.644531 -5.617188 6.347656 -7.140625 8.453125 -9.890625 C 10.378906 -12.410156 11.070312 -15.175781 10.53125 -18.1875 L 10.578125 -18.265625 L 12.71875 -16.625 L 17.6875 -23.109375 L -1.34375 -37.671875 L -6.359375 -31.109375 L -4.53125 -29.71875 C -7.382812 -29.300781 -9.773438 -27.832031 -11.703125 -25.3125 C -13.804688 -22.5625 -14.554688 -19.546875 -13.953125 -16.265625 Z M 0.640625 -13.859375 C -0.804688 -13.679688 -2.1875 -14.09375 -3.5 -15.09375 C -4.8125 -16.101562 -5.5625 -17.351562 -5.75 -18.84375 C -5.9375 -20.34375 -5.546875 -21.722656 -4.578125 -22.984375 C -3.640625 -24.210938 -2.421875 -24.9375 -0.921875 -25.15625 C 0.566406 -25.375 1.972656 -24.976562 3.296875 -23.96875 C 4.578125 -22.988281 5.316406 -21.757812 5.515625 -20.28125 C 5.722656 -18.800781 5.335938 -17.421875 4.359375 -16.140625 C 3.328125 -14.796875 2.085938 -14.035156 0.640625 -13.859375 Z M 0.640625 -13.859375 "/></g></g></g><path stroke-linecap="butt" transform="matrix(0.413402, -0.659706, 0.659706, 0.413402, 116.244153, 115.429783)" fill="none" stroke-linejoin="miter" d="M 3.603037 0.391888 L 14.220869 0.39369 L 14.224464 52.000573 L 3.60238 52.001435 Z M 3.603037 0.391888 " stroke="#940051" stroke-width="2.250022" stroke-opacity="1" stroke-miterlimit="4"/><path stroke-linecap="butt" transform="matrix(0.436424, -0.644707, 0.644707, 0.436424, 124.151627, 102.843766)" fill="none" stroke-linejoin="miter" d="M 3.60343 0.391358 L 14.22571 0.392748 L 14.223412 51.998379 L 3.603944 52.001143 Z M 3.60343 0.391358 " stroke="#940051" stroke-width="2.250022" stroke-opacity="1" stroke-miterlimit="4"/><path stroke-linecap="butt" transform="matrix(0.473205, -0.618216, 0.618216, 0.473205, 132.673121, 89.872266)" fill="none" stroke-linejoin="miter" d="M 16.977904 12.156759 L 29.164663 1.59643 L 34.615293 8.49448 L 20.34604 16.788171 Z M 5.700251 25.060465 C 2.81891 28.213741 1.375541 32.073454 1.378115 36.633505 C 1.376705 41.196605 2.819411 45.046077 5.701316 48.192004 C 8.581105 51.326912 12.238311 52.893694 16.686999 52.89422 C 20.756348 52.894451 24.117921 51.433449 26.7607 48.513326 L 26.879096 48.511162 L 26.87719 52.000482 L 37.385238 52.000789 L 37.383458 21.224306 L 26.760998 21.223113 L 26.761648 24.154441 C 24.113291 21.594298 20.757956 20.314577 16.684623 20.317395 C 12.239918 20.31382 8.579478 21.896171 5.700251 25.060465 Z M 14.634677 41.834286 C 13.312933 40.495483 12.654739 38.768828 12.657043 36.650337 C 12.657232 34.520828 13.3436 32.775968 14.719195 31.419744 C 16.105809 30.061404 17.824249 29.384222 19.864432 29.383281 C 21.865462 29.380716 23.55405 30.059607 24.930196 31.419954 C 26.310326 32.777251 26.995722 34.514678 27.000451 36.634104 C 26.99977 38.713441 26.327224 40.435083 24.988914 41.806999 C 23.652472 43.164847 21.94505 43.839913 19.861728 43.842281 C 17.707133 43.842338 15.960405 43.170039 14.634677 41.834286 Z M 14.634677 41.834286 " stroke="#940051" stroke-width="2.250022" stroke-opacity="1" stroke-miterlimit="4"/><g clip-path="url(#5391fe2745)"><g clip-path="url(#19066ebd57)"><path fill="#ffffff" d="M 15.421875 251.070312 L 92.050781 251.070312 L 92.050781 327.699219 L 15.421875 327.699219 Z M 15.421875 251.070312 " fill-opacity="1" fill-rule="nonzero"/></g></g></svg>